<svg width="301" height="307" viewBox="0 0 301 307" fill="none" xmlns="http://www.w3.org/2000/svg">
<path d="M102.602 306.312C69.902 306.312 44.396 298.464 26.084 282.768C9.08 268.816 0.578 251.158 0.578 229.794C0.578 204.942 10.606 183.142 30.662 164.394C52.462 143.03 81.892 130.386 118.952 126.462C111.54 116.434 107.834 104.88 107.834 91.8C107.834 64.332 122.44 41.442 151.652 23.13C174.76 8.30599 200.048 0.893993 227.516 0.893993C243.212 0.893993 255.638 3.29199 264.794 8.08798C275.694 14.628 281.144 24.22 281.144 36.864C281.144 44.712 278.528 51.688 273.296 57.792C268.5 63.896 262.832 66.948 256.292 66.948C250.624 66.948 245.828 64.986 241.904 61.062C238.416 57.138 236.672 52.56 236.672 47.328C237.108 35.12 243.212 29.016 254.984 29.016C263.268 29.016 268.282 31.414 270.026 36.21V30.978C270.026 17.898 260.434 11.358 241.25 11.358C214.218 11.358 188.058 22.694 162.77 45.366C158.41 48.854 154.486 52.996 150.998 57.792C147.51 62.588 144.022 67.82 140.534 73.488C133.122 86.132 129.416 97.904 129.416 108.804C129.416 114.472 130.506 119.922 132.686 125.154C139.226 124.718 144.676 124.5 149.036 124.5C153.832 124.5 157.756 124.5 160.808 124.5C177.812 124.5 186.314 129.078 186.314 138.234C186.314 146.082 179.338 150.006 165.386 150.006C150.562 150.006 136.828 144.12 124.184 132.348C98.896 136.272 78.186 148.916 62.054 170.28C47.666 189.028 40.472 210.61 40.472 235.026C40.472 253.338 45.486 268.598 55.514 280.806C66.414 294.322 82.11 301.08 102.602 301.08C129.634 301.08 153.178 291.706 173.234 272.958C191.982 255.954 201.356 238.078 201.356 219.33C201.356 209.738 196.124 202.108 185.66 196.44C176.068 190.772 163.642 187.938 148.382 187.938C132.686 187.938 118.734 190.99 106.526 197.094C91.702 204.506 84.29 214.534 84.29 227.178C84.29 240.258 93.228 251.594 111.104 261.186C113.72 262.494 115.028 264.674 115.028 267.726C115.028 269.034 114.374 269.688 113.066 269.688H111.104C82.328 253.992 67.94 236.334 67.94 216.714C67.94 204.07 74.48 193.606 87.56 185.322C102.384 176.602 121.132 172.242 143.804 172.242H216.398C228.17 172.242 243.212 168.536 261.524 161.124C283.324 152.404 294.224 142.376 294.224 131.04C294.224 127.116 292.916 123.192 290.3 119.268C287.684 115.78 288.12 114.036 291.608 114.036C293.352 114.036 294.442 114.69 294.878 115.998C298.802 121.666 300.764 127.77 300.764 134.31C300.764 143.466 296.186 151.968 287.03 159.816C278.31 167.664 266.756 173.986 252.368 178.782C238.416 183.142 223.592 185.322 207.896 185.322C217.924 194.042 222.938 204.724 222.938 217.368C222.938 239.168 211.602 258.788 188.93 276.228C164.95 296.284 136.174 306.312 102.602 306.312ZM165.386 143.466C174.542 143.466 179.12 141.722 179.12 138.234C179.12 134.31 174.978 132.13 166.694 131.694C161.462 131.258 156.23 131.04 150.998 131.04C145.766 130.604 140.752 130.604 135.956 131.04C142.932 139.324 152.742 143.466 165.386 143.466Z" fill="white" fill-opacity="0.2"/>
</svg>
