<svg width="244" height="248" viewBox="0 0 244 248" fill="none" xmlns="http://www.w3.org/2000/svg">
<path d="M83.39 247.84C56.89 247.84 36.22 241.48 21.38 228.76C7.6 217.453 0.71 203.143 0.71 185.83C0.71 165.69 8.83667 148.023 25.09 132.83C42.7567 115.517 66.6067 105.27 96.64 102.09C90.6333 93.9633 87.63 84.6 87.63 74C87.63 51.74 99.4667 33.19 123.14 18.35C141.867 6.33666 162.36 0.329994 184.62 0.329994C197.34 0.329994 207.41 2.27332 214.83 6.15998C223.663 11.46 228.08 19.2333 228.08 29.48C228.08 35.84 225.96 41.4933 221.72 46.44C217.833 51.3867 213.24 53.86 207.94 53.86C203.347 53.86 199.46 52.27 196.28 49.09C193.453 45.91 192.04 42.2 192.04 37.96C192.393 28.0667 197.34 23.12 206.88 23.12C213.593 23.12 217.657 25.0633 219.07 28.95V24.71C219.07 14.11 211.297 8.81 195.75 8.81C173.843 8.81 152.643 17.9967 132.15 36.37C128.617 39.1967 125.437 42.5533 122.61 46.44C119.783 50.3267 116.957 54.5667 114.13 59.16C108.123 69.4067 105.12 78.9467 105.12 87.78C105.12 92.3733 106.003 96.79 107.77 101.03C113.07 100.677 117.487 100.5 121.02 100.5C124.907 100.5 128.087 100.5 130.56 100.5C144.34 100.5 151.23 104.21 151.23 111.63C151.23 117.99 145.577 121.17 134.27 121.17C122.257 121.17 111.127 116.4 100.88 106.86C80.3867 110.04 63.6033 120.287 50.53 137.6C38.87 152.793 33.04 170.283 33.04 190.07C33.04 204.91 37.1033 217.277 45.23 227.17C54.0633 238.123 66.7833 243.6 83.39 243.6C105.297 243.6 124.377 236.003 140.63 220.81C155.823 207.03 163.42 192.543 163.42 177.35C163.42 169.577 159.18 163.393 150.7 158.8C142.927 154.207 132.857 151.91 120.49 151.91C107.77 151.91 96.4633 154.383 86.57 159.33C74.5567 165.337 68.55 173.463 68.55 183.71C68.55 194.31 75.7933 203.497 90.28 211.27C92.4 212.33 93.46 214.097 93.46 216.57C93.46 217.63 92.93 218.16 91.87 218.16H90.28C66.96 205.44 55.3 191.13 55.3 175.23C55.3 164.983 60.6 156.503 71.2 149.79C83.2133 142.723 98.4067 139.19 116.78 139.19H175.61C185.15 139.19 197.34 136.187 212.18 130.18C229.847 123.113 238.68 114.987 238.68 105.8C238.68 102.62 237.62 99.44 235.5 96.26C233.38 93.4333 233.733 92.02 236.56 92.02C237.973 92.02 238.857 92.55 239.21 93.61C242.39 98.2033 243.98 103.15 243.98 108.45C243.98 115.87 240.27 122.76 232.85 129.12C225.783 135.48 216.42 140.603 204.76 144.49C193.453 148.023 181.44 149.79 168.72 149.79C176.847 156.857 180.91 165.513 180.91 175.76C180.91 193.427 171.723 209.327 153.35 223.46C133.917 239.713 110.597 247.84 83.39 247.84ZM134.27 115.87C141.69 115.87 145.4 114.457 145.4 111.63C145.4 108.45 142.043 106.683 135.33 106.33C131.09 105.977 126.85 105.8 122.61 105.8C118.37 105.447 114.307 105.447 110.42 105.8C116.073 112.513 124.023 115.87 134.27 115.87Z" fill="#FCFCFC" fill-opacity="0.2"/>
</svg>
