<svg width="108" height="108" viewBox="0 0 108 108" fill="none" xmlns="http://www.w3.org/2000/svg">
<g filter="url(#filter0_d_270_4)">
<circle cx="54" cy="50" r="50" fill="#60453C"/>
<path d="M49 73C46.25 73 43.8958 72.0208 41.9375 70.0625C39.9792 68.1042 39 65.75 39 63C39 60.25 39.9792 57.8958 41.9375 55.9375C43.8958 53.9792 46.25 53 49 53C49.9583 53 50.8437 53.1146 51.6562 53.3437C52.4688 53.5729 53.25 53.9167 54 54.375V28H69V38H59V63C59 65.75 58.0208 68.1042 56.0625 70.0625C54.1042 72.0208 51.75 73 49 73Z" fill="#F3F3F3"/>
</g>
<defs>
<filter id="filter0_d_270_4" x="0" y="0" width="108" height="108" filterUnits="userSpaceOnUse" color-interpolation-filters="sRGB">
<feFlood flood-opacity="0" result="BackgroundImageFix"/>
<feColorMatrix in="SourceAlpha" type="matrix" values="0 0 0 0 0 0 0 0 0 0 0 0 0 0 0 0 0 0 127 0" result="hardAlpha"/>
<feOffset dy="4"/>
<feGaussianBlur stdDeviation="2"/>
<feComposite in2="hardAlpha" operator="out"/>
<feColorMatrix type="matrix" values="0 0 0 0 0 0 0 0 0 0 0 0 0 0 0 0 0 0 0.25 0"/>
<feBlend mode="normal" in2="BackgroundImageFix" result="effect1_dropShadow_270_4"/>
<feBlend mode="normal" in="SourceGraphic" in2="effect1_dropShadow_270_4" result="shape"/>
</filter>
</defs>
</svg>
