<svg width="221" height="268" viewBox="0 0 221 268" fill="none" xmlns="http://www.w3.org/2000/svg">
<mask id="mask0_241_7" style="mask-type:alpha" maskUnits="userSpaceOnUse" x="0" y="0" width="221" height="268">
<rect width="221" height="267.383" fill="#D9D9D9"/>
</mask>
<g mask="url(#mask0_241_7)">
<path d="M92.0833 233.96C81.9542 233.96 73.283 229.596 66.0698 220.869C58.8566 212.142 55.25 201.651 55.25 189.396C55.25 177.141 58.8566 166.65 66.0698 157.923C73.283 149.196 81.9542 144.832 92.0833 144.832C95.6132 144.832 98.8745 145.343 101.867 146.364C104.86 147.385 107.737 148.917 110.5 150.96V33.4229H165.75V77.9866H128.917V189.396C128.917 201.651 125.31 212.142 118.097 220.869C110.884 229.596 102.212 233.96 92.0833 233.96Z" fill="#F9F9F9"/>
</g>
</svg>
